<?xml version="1.0" encoding="utf-8"?>
<!-- Generator: Adobe Illustrator 28.1.0, SVG Export Plug-In . SVG Version: 6.00 Build 0)  -->
<svg version="1.1" xmlns="http://www.w3.org/2000/svg" xmlns:xlink="http://www.w3.org/1999/xlink" x="0px" y="0px"
	 viewBox="0 0 79.1 78.5" style="enable-background:new 0 0 79.1 78.5;" xml:space="preserve">
<style type="text/css">
	.st0{fill:#2E35F1;}
	.st1{fill:none;stroke:#000000;stroke-width:1.3;stroke-linecap:round;stroke-linejoin:round;stroke-miterlimit:10;}
	.st2{fill:none;stroke:#000000;stroke-width:1.3;stroke-linecap:round;stroke-linejoin:round;stroke-miterlimit:2.6131;}
</style>
<g id="_x31_03">
	<g>
		<g>
			<g>
				<path class="st0" d="M39.7,70.7c-17.6,0-31.9-14.3-31.9-31.9C7.8,21.3,22.1,7,39.7,7c17.6,0,31.9,14.3,31.9,31.9
					C71.6,56.4,57.3,70.7,39.7,70.7z M39.7,8.3C22.9,8.3,9.1,22,9.1,38.8c0,16.8,13.7,30.6,30.6,30.6c16.8,0,30.6-13.7,30.6-30.6
					C70.3,22,56.5,8.3,39.7,8.3z"/>
			</g>
			<g>
				<path class="st0" d="M39.7,61C27.5,61,17.6,51,17.6,38.8c0-12.2,9.9-22.1,22.1-22.1s22.1,9.9,22.1,22.1C61.8,51,51.9,61,39.7,61
					z M39.7,18c-11.5,0-20.8,9.3-20.8,20.8c0,11.5,9.3,20.8,20.8,20.8s20.8-9.3,20.8-20.8C60.5,27.3,51.2,18,39.7,18z"/>
			</g>
			<g>
				<path class="st0" d="M39.7,47.7c-4.9,0-8.9-4-8.9-8.9c0-4.9,4-8.9,8.9-8.9s8.9,4,8.9,8.9C48.6,43.7,44.6,47.7,39.7,47.7z
					 M39.7,31.3c-4.2,0-7.6,3.4-7.6,7.6c0,4.2,3.4,7.6,7.6,7.6s7.6-3.4,7.6-7.6C47.3,34.7,43.9,31.3,39.7,31.3z"/>
			</g>
			<g>
				<path class="st0" d="M39.7,18c-0.4,0-0.7-0.3-0.7-0.7V0.7c0-0.4,0.3-0.7,0.7-0.7c0.4,0,0.7,0.3,0.7,0.7v16.7
					C40.4,17.7,40.1,18,39.7,18z"/>
			</g>
			<g>
				<path class="st0" d="M78.5,39.5H61.2c-0.4,0-0.7-0.3-0.7-0.7c0-0.4,0.3-0.7,0.7-0.7h17.3c0.4,0,0.7,0.3,0.7,0.7
					C79.1,39.2,78.8,39.5,78.5,39.5z"/>
			</g>
			<g>
				<path class="st0" d="M39.7,78.5c-0.4,0-0.7-0.3-0.7-0.7V60.2c0-0.4,0.3-0.7,0.7-0.7c0.4,0,0.7,0.3,0.7,0.7v17.7
					C40.4,78.2,40.1,78.5,39.7,78.5z"/>
			</g>
			<g>
				<path class="st0" d="M18.2,39.5H0.7c-0.4,0-0.7-0.3-0.7-0.7c0-0.4,0.3-0.7,0.7-0.7h17.6c0.4,0,0.7,0.3,0.7,0.7
					C18.9,39.2,18.6,39.5,18.2,39.5z"/>
			</g>
			<g>
				<path class="st0" d="M39.7,42.6c-2.1,0-3.8-1.7-3.8-3.8c0-2.1,1.7-3.8,3.8-3.8c2.1,0,3.8,1.7,3.8,3.8
					C43.5,40.9,41.8,42.6,39.7,42.6z M39.7,36.3c-1.4,0-2.5,1.1-2.5,2.5c0,1.4,1.1,2.5,2.5,2.5c1.4,0,2.5-1.1,2.5-2.5
					C42.2,37.5,41.1,36.3,39.7,36.3z"/>
			</g>
		</g>
	</g>
</g>
<g id="Layer_1">
</g>
</svg>
