<?xml version="1.0" encoding="utf-8"?>
<!-- Generator: Adobe Illustrator 28.1.0, SVG Export Plug-In . SVG Version: 6.00 Build 0)  -->
<svg version="1.1" xmlns="http://www.w3.org/2000/svg" xmlns:xlink="http://www.w3.org/1999/xlink" x="0px" y="0px"
	 viewBox="0 0 59.3 79.1" style="enable-background:new 0 0 59.3 79.1;" xml:space="preserve">
<style type="text/css">
	.st0{fill:#2E35F1;}
	.st1{fill:none;stroke:#000000;stroke-width:1.3;stroke-linecap:round;stroke-linejoin:round;stroke-miterlimit:10;}
	.st2{fill:none;stroke:#000000;stroke-width:1.3;stroke-linecap:round;stroke-linejoin:round;stroke-miterlimit:2.6131;}
</style>
<g id="_x31_03">
	<g>
		<g>
			<g>
				<path class="st0" d="M24.1,48.1c-8.6,0-16.6-4.6-20.9-12C0,30.5-0.8,24,0.8,17.8C2.5,11.6,6.5,6.4,12,3.2C15.7,1.1,19.8,0,24,0
					c8.6,0,16.6,4.6,20.9,12c6.6,11.5,2.7,26.2-8.8,32.9C32.4,47,28.3,48.1,24.1,48.1z M24,1.3c-4,0-7.9,1.1-11.4,3.1
					c-5.3,3-9,7.9-10.6,13.8c-1.6,5.9-0.8,12,2.3,17.3c4,7,11.6,11.4,19.7,11.4c4,0,7.9-1.1,11.4-3c10.9-6.3,14.6-20.2,8.3-31.1
					C39.7,5.7,32.2,1.3,24,1.3z"/>
			</g>
			<g>
				<path class="st0" d="M38.3,54.6c-0.2,0-0.4-0.1-0.6-0.3l-4.9-8.4c-0.1-0.2-0.1-0.4-0.1-0.5c0.1-0.2,0.2-0.3,0.4-0.4
					c0.7-0.3,1.3-0.6,1.9-1c0.7-0.4,1.3-0.8,1.8-1.2c0.1-0.1,0.3-0.2,0.5-0.1c0.2,0,0.3,0.2,0.4,0.3l4.9,8.4
					c0.1,0.1,0.1,0.3,0.1,0.5c0,0.2-0.2,0.3-0.3,0.4l-3.9,2.2C38.6,54.5,38.4,54.6,38.3,54.6z M34.4,45.8l4.2,7.2l2.8-1.6l-4.2-7.2
					c-0.4,0.3-0.9,0.6-1.3,0.9C35.4,45.3,34.9,45.6,34.4,45.8z"/>
			</g>
			<g>
				<path class="st0" d="M48,79.1c-0.1,0-0.1,0-0.2,0c-0.2,0-0.3-0.2-0.4-0.3l-13-22.6c-0.1-0.1-0.1-0.3-0.1-0.5
					c0-0.2,0.2-0.3,0.3-0.4l10.6-6.1c0.3-0.2,0.7-0.1,0.9,0.2l13,22.6c0.2,0.3,0.1,0.7-0.2,0.9L48.3,79C48.2,79.1,48.1,79.1,48,79.1
					z M35.9,56.1l12.4,21.5l9.5-5.5L45.3,50.6L35.9,56.1z"/>
			</g>
			<g>
				<path class="st0" d="M49.5,72c-1.2,0-2.3-0.6-2.9-1.6c-0.9-1.6-0.4-3.6,1.2-4.5c0.5-0.3,1.1-0.4,1.6-0.4c1.2,0,2.3,0.6,2.9,1.7
					c0.9,1.6,0.4,3.6-1.2,4.5C50.6,71.8,50,72,49.5,72z M49.4,66.7c-0.3,0-0.7,0.1-1,0.3c-0.9,0.5-1.3,1.8-0.7,2.7
					c0.5,0.9,1.8,1.3,2.7,0.7c1-0.6,1.3-1.8,0.7-2.7C50.8,67.1,50.2,66.7,49.4,66.7z"/>
			</g>
			<g>
				<path class="st0" d="M24.1,32.6c-5.9,0-11.5-3.2-14.5-8.2c-0.1-0.2-0.1-0.5,0-0.7c3-5.1,8.6-8.2,14.5-8.2
					c5.9,0,11.5,3.2,14.5,8.2c0.1,0.2,0.1,0.5,0,0.7C35.5,29.5,30,32.6,24.1,32.6z M10.9,24.1c2.8,4.5,7.8,7.3,13.2,7.3
					c5.3,0,10.3-2.8,13.2-7.3c-2.8-4.5-7.8-7.3-13.2-7.3C18.7,16.8,13.7,19.6,10.9,24.1z"/>
			</g>
			<g>
				<path class="st0" d="M24.1,31.6c-4.1,0-7.5-3.4-7.5-7.5c0-4.1,3.4-7.5,7.5-7.5c4.1,0,7.5,3.4,7.5,7.5
					C31.6,28.2,28.2,31.6,24.1,31.6z M24.1,17.8c-3.4,0-6.2,2.8-6.2,6.2c0,3.4,2.8,6.2,6.2,6.2c3.4,0,6.2-2.8,6.2-6.2
					C30.3,20.6,27.5,17.8,24.1,17.8z"/>
			</g>
			<g>
				<path class="st0" d="M24.1,26.1c-1.1,0-2.1-0.9-2.1-2.1c0-1.1,0.9-2.1,2.1-2.1c1.1,0,2.1,0.9,2.1,2.1
					C26.1,25.2,25.2,26.1,24.1,26.1z M24.1,23.3c-0.4,0-0.8,0.3-0.8,0.8c0,0.4,0.3,0.8,0.8,0.8c0.4,0,0.8-0.3,0.8-0.8
					C24.8,23.6,24.5,23.3,24.1,23.3z"/>
			</g>
			<g>
				<path class="st0" d="M27.7,23.3c-2.2,0-4-1.8-4-4c0-0.9,0.3-1.7,0.8-2.4c0.1-0.2,0.4-0.3,0.6-0.3c2.6,0.4,4.8,2.1,5.9,4.4
					c0.1,0.2,0.1,0.5-0.1,0.7C30.1,22.7,28.9,23.3,27.7,23.3z M25.3,18c-0.2,0.4-0.3,0.8-0.3,1.3c0,1.5,1.2,2.7,2.7,2.7
					c0.7,0,1.4-0.3,1.9-0.8C28.7,19.6,27.1,18.4,25.3,18z"/>
			</g>
		</g>
	</g>
</g>
<g id="Layer_1">
</g>
</svg>
