<?xml version="1.0" encoding="UTF-8"?>
<svg id="_103" data-name="103" xmlns="http://www.w3.org/2000/svg" viewBox="0 0 61.99 79.11">
  <defs>
    <style>
      .cls-1 {
        fill: #2e35f1;
        stroke-width: 0px;
      }
    </style>
  </defs>
  <path class="cls-1" d="M46.94,79.11c-5.71,0-10.17-2.78-10.17-6.32,0-2.27,1.86-4.31,4.99-5.46.34-.12.71.05.83.39.12.34-.05.71-.39.83-2.55.93-4.13,2.55-4.13,4.23,0,2.72,4.06,5.02,8.87,5.02s8.87-2.3,8.87-5.02c0-1.7-1.61-3.33-4.2-4.25-.34-.12-.51-.49-.39-.83.12-.34.49-.51.83-.39,3.17,1.14,5.06,3.18,5.06,5.48,0,3.54-4.47,6.32-10.17,6.32Z"/>
  <path class="cls-1" d="M46.89,73.45c-.18,0-.35-.07-.47-.21-1.17-1.24-2.43-2.45-3.76-3.74-5.29-5.09-10.76-10.36-10.76-17.69,0-8.3,6.75-15.04,15.05-15.04s15.05,6.75,15.05,15.04c0,7.25-5.78,12.81-10.88,17.71-1.34,1.28-2.6,2.5-3.74,3.72-.12.13-.29.21-.47.21h0ZM46.94,38.07c-7.58,0-13.75,6.17-13.75,13.74,0,6.77,5.27,11.85,10.36,16.75,1.12,1.08,2.27,2.18,3.33,3.28,1.04-1.07,2.15-2.14,3.32-3.27,5.15-4.95,10.48-10.07,10.48-16.77,0-7.58-6.17-13.74-13.75-13.74Z"/>
  <path class="cls-1" d="M46.94,56.97c-3.26,0-5.92-2.65-5.92-5.92s2.66-5.91,5.92-5.91,5.91,2.65,5.91,5.91-2.65,5.92-5.91,5.92ZM46.94,46.44c-2.55,0-4.62,2.07-4.62,4.61s2.07,4.61,4.62,4.61,4.61-2.07,4.61-4.61-2.07-4.61-4.61-4.61Z"/>
  <path class="cls-1" d="M10.93,49.4c-4.18,0-7.45-2.06-7.45-4.7,0-1.71,1.38-3.23,3.68-4.07.34-.12.71.05.83.39.12.34-.05.71-.39.83-1.74.63-2.83,1.72-2.83,2.84,0,1.84,2.82,3.4,6.15,3.4s6.14-1.56,6.14-3.4c0-1.13-1.1-2.23-2.87-2.86-.34-.12-.51-.49-.39-.83.12-.34.5-.51.83-.39,2.34.84,3.73,2.37,3.73,4.09,0,2.63-3.27,4.7-7.44,4.7Z"/>
  <path class="cls-1" d="M10.89,45.36c-.18,0-.35-.07-.47-.21-.83-.89-1.73-1.75-2.69-2.67-3.8-3.66-7.73-7.45-7.73-12.75,0-6.02,4.9-10.93,10.93-10.93s10.92,4.9,10.92,10.93c0,5.26-4.16,9.26-7.83,12.78-.95.91-1.84,1.77-2.66,2.64-.12.13-.29.21-.47.21ZM10.93,20.11c-5.31,0-9.62,4.32-9.62,9.63,0,4.75,3.73,8.34,7.33,11.81.76.73,1.53,1.47,2.26,2.22.7-.72,1.45-1.44,2.23-2.19,3.65-3.51,7.43-7.14,7.43-11.85,0-5.31-4.32-9.63-9.62-9.63Z"/>
  <path class="cls-1" d="M10.93,33.59c-2.43,0-4.41-1.98-4.41-4.41s1.98-4.41,4.41-4.41,4.41,1.98,4.41,4.41-1.98,4.41-4.41,4.41ZM10.93,26.07c-1.72,0-3.11,1.39-3.11,3.11s1.4,3.11,3.11,3.11,3.11-1.39,3.11-3.11-1.39-3.11-3.11-3.11Z"/>
  <path class="cls-1" d="M35,23.42c-3.24,0-5.78-1.63-5.78-3.71,0-1.36,1.08-2.56,2.89-3.22.34-.12.71.05.83.39.12.34-.05.71-.39.83-1.25.46-2.03,1.22-2.03,2,0,1.3,2.05,2.41,4.48,2.41s4.48-1.1,4.48-2.41c0-.78-.79-1.55-2.07-2.01-.34-.12-.51-.49-.39-.83.12-.34.49-.51.83-.39,1.83.66,2.93,1.87,2.93,3.23,0,2.08-2.54,3.71-5.78,3.71Z"/>
  <path class="cls-1" d="M34.97,20.37c-.18,0-.35-.07-.47-.21-.63-.67-1.3-1.32-2.02-2.01-2.76-2.66-5.88-5.67-5.88-9.74,0-4.64,3.77-8.41,8.41-8.41s8.41,3.77,8.41,8.41c0,4.03-3.17,7.08-5.96,9.76-.71.69-1.39,1.33-2,1.98-.12.13-.29.21-.47.21ZM35,1.3c-3.92,0-7.11,3.19-7.11,7.11,0,3.52,2.79,6.2,5.49,8.8.53.51,1.08,1.04,1.59,1.56.5-.51,1.02-1.01,1.57-1.54,2.73-2.63,5.56-5.35,5.56-8.83,0-3.92-3.19-7.11-7.11-7.11Z"/>
  <path class="cls-1" d="M35,11.48c-1.92,0-3.49-1.57-3.49-3.49s1.57-3.49,3.49-3.49,3.49,1.57,3.49,3.49-1.56,3.49-3.49,3.49ZM35,5.8c-1.21,0-2.19.98-2.19,2.19s.98,2.19,2.19,2.19,2.19-.98,2.19-2.19-.98-2.19-2.19-2.19Z"/>
  <path class="cls-1" d="M17.44,44.19c-.15,0-.3-.05-.43-.16-.27-.24-.3-.65-.07-.92l18.04-20.79c.24-.27.65-.3.92-.07.27.24.3.65.07.92l-18.04,20.79c-.13.15-.31.22-.49.22Z"/>
  <path class="cls-1" d="M37.42,73.44c-.16,0-.31-.06-.44-.17l-26.5-24.05c-.27-.24-.29-.65-.04-.92.24-.27.65-.29.92-.05l26.5,24.05c.27.24.29.65.04.92-.13.14-.3.21-.48.21Z"/>
</svg>