<?xml version="1.0" encoding="utf-8"?>
<!-- Generator: Adobe Illustrator 28.1.0, SVG Export Plug-In . SVG Version: 6.00 Build 0)  -->
<svg version="1.1" xmlns="http://www.w3.org/2000/svg" xmlns:xlink="http://www.w3.org/1999/xlink" x="0px" y="0px"
	 viewBox="0 0 79.1 66.5" style="enable-background:new 0 0 79.1 66.5;" xml:space="preserve">
<style type="text/css">
	.st0{fill:#2E35F1;}
	.st1{fill:none;stroke:#000000;stroke-width:1.3;stroke-linecap:round;stroke-linejoin:round;stroke-miterlimit:10;}
	.st2{fill:none;stroke:#000000;stroke-width:1.3;stroke-linecap:round;stroke-linejoin:round;stroke-miterlimit:2.6131;}
</style>
<g id="_x31_03">
	<g>
		<g>
			<g>
				<path class="st0" d="M78.5,66.5H0.6c-0.4,0-0.6-0.3-0.6-0.7V7.3c0-0.4,0.3-0.7,0.6-0.7h77.8c0.4,0,0.7,0.3,0.7,0.7v58.6
					C79.1,66.2,78.8,66.5,78.5,66.5z M1.3,65.2h76.5V7.9H1.3V65.2z"/>
			</g>
			<g>
				<path class="st0" d="M71.5,13.2c-0.4,0-0.7-0.3-0.7-0.7s0.3-0.7,0.7-0.7c1.8,0,3.2-1.4,3.2-3.2V4.5c0-1.8-1.4-3.2-3.2-3.2
					c-1.8,0-3.2,1.4-3.2,3.2v2.3c0,0.4-0.3,0.7-0.7,0.7c-0.4,0-0.7-0.3-0.7-0.7V4.5C67,2,69,0,71.5,0C74,0,76,2,76,4.5v4.2
					C76,11.2,74,13.2,71.5,13.2z M60.8,13.2c-0.4,0-0.7-0.3-0.7-0.7s0.3-0.7,0.7-0.7c1.8,0,3.2-1.4,3.2-3.2V4.5
					c0-1.8-1.4-3.2-3.2-3.2c-1.8,0-3.2,1.4-3.2,3.2v2.3c0,0.4-0.3,0.7-0.7,0.7c-0.4,0-0.7-0.3-0.7-0.7V4.5c0-2.5,2-4.5,4.5-4.5
					c2.5,0,4.5,2,4.5,4.5v4.2C65.3,11.2,63.3,13.2,60.8,13.2z M50.2,13.2c-0.4,0-0.7-0.3-0.7-0.7s0.3-0.7,0.7-0.7
					c1.8,0,3.2-1.4,3.2-3.2V4.5c0-1.8-1.4-3.2-3.2-3.2c-1.8,0-3.2,1.4-3.2,3.2v2.3c0,0.4-0.3,0.7-0.7,0.7c-0.4,0-0.7-0.3-0.7-0.7
					V4.5c0-2.5,2-4.5,4.5-4.5c2.5,0,4.5,2,4.5,4.5v4.2C54.7,11.2,52.7,13.2,50.2,13.2z M39.6,13.2c-0.4,0-0.7-0.3-0.7-0.7
					s0.3-0.7,0.7-0.7c1.8,0,3.2-1.4,3.2-3.2V4.5c0-1.8-1.4-3.2-3.2-3.2c-1.8,0-3.2,1.4-3.2,3.2v2.3c0,0.4-0.3,0.7-0.7,0.7
					c-0.4,0-0.7-0.3-0.7-0.7V4.5C35,2,37.1,0,39.6,0c2.5,0,4.5,2,4.5,4.5v4.2C44.1,11.2,42,13.2,39.6,13.2z M28.9,13.2
					c-0.4,0-0.7-0.3-0.7-0.7s0.3-0.7,0.7-0.7c1.8,0,3.2-1.4,3.2-3.2V4.5c0-1.8-1.4-3.2-3.2-3.2c-1.8,0-3.2,1.4-3.2,3.2v2.3
					c0,0.4-0.3,0.7-0.6,0.7s-0.6-0.3-0.6-0.7V4.5c0-2.5,2-4.5,4.5-4.5c2.5,0,4.5,2,4.5,4.5v4.2C33.4,11.2,31.4,13.2,28.9,13.2z
					 M18.3,13.2c-0.4,0-0.7-0.3-0.7-0.7s0.3-0.7,0.7-0.7c1.8,0,3.2-1.4,3.2-3.2V4.5c0-1.8-1.4-3.2-3.2-3.2c-1.8,0-3.2,1.4-3.2,3.2
					v2.3c0,0.4-0.3,0.7-0.6,0.7c-0.4,0-0.6-0.3-0.6-0.7V4.5c0-2.5,2-4.5,4.5-4.5c2.5,0,4.5,2,4.5,4.5v4.2
					C22.8,11.2,20.8,13.2,18.3,13.2z M7.6,13.2c-0.4,0-0.6-0.3-0.6-0.7s0.3-0.7,0.6-0.7c1.8,0,3.2-1.4,3.2-3.2V4.5
					c0-1.8-1.4-3.2-3.2-3.2c-1.8,0-3.2,1.4-3.2,3.2v2.3c0,0.4-0.3,0.7-0.6,0.7c-0.4,0-0.6-0.3-0.6-0.7V4.5C3.1,2,5.2,0,7.6,0
					c2.5,0,4.5,2,4.5,4.5v4.2C12.2,11.2,10.1,13.2,7.6,13.2z"/>
			</g>
			<g>
				<path class="st0" d="M78.5,21.1H0.6c-0.4,0-0.6-0.3-0.6-0.7s0.3-0.7,0.6-0.7h77.8c0.4,0,0.7,0.3,0.7,0.7S78.8,21.1,78.5,21.1z"
					/>
			</g>
			<g>
				<path class="st0" d="M70.5,58.5H49.3c-0.4,0-0.7-0.3-0.7-0.7V36.2c0-0.4,0.3-0.7,0.7-0.7h21.2c0.4,0,0.7,0.3,0.7,0.7v21.6
					C71.1,58.2,70.8,58.5,70.5,58.5z M49.9,57.2h19.9V36.9H49.9V57.2z"/>
			</g>
			<g>
				<path class="st0" d="M59.9,53.5c-0.4,0-0.7,0-1.1-0.1c-1.7-0.3-3.2-1.2-4.2-2.6c-1-1.4-1.4-3.1-1.1-4.8c0.6-3.5,4-5.9,7.5-5.3
					c0.4,0.1,0.6,0.4,0.5,0.8c-0.1,0.4-0.4,0.6-0.8,0.5c-2.8-0.5-5.5,1.4-6,4.2c-0.2,1.4,0.1,2.7,0.9,3.9c0.8,1.1,2,1.9,3.4,2.1
					c1.4,0.2,2.7-0.1,3.9-0.9c1.1-0.8,1.9-2,2.1-3.4c0.1-0.4,0.4-0.6,0.8-0.5c0.4,0.1,0.6,0.4,0.5,0.8c-0.3,1.7-1.2,3.2-2.7,4.2
					C62.5,53.1,61.2,53.5,59.9,53.5z"/>
			</g>
			<g>
				<path class="st0" d="M59.9,48.5c-0.2,0-0.3-0.1-0.5-0.2L57.3,46c-0.2-0.3-0.2-0.7,0-0.9c0.3-0.2,0.7-0.2,0.9,0l1.7,1.8l6.4-5.3
					c0.3-0.2,0.7-0.2,0.9,0.1c0.2,0.3,0.2,0.7-0.1,0.9l-6.9,5.7C60.2,48.5,60,48.5,59.9,48.5z"/>
			</g>
			<g>
				<path class="st0" d="M13.1,31.8H7.2c-0.4,0-0.6-0.3-0.6-0.7v-5.9c0-0.4,0.3-0.7,0.6-0.7h5.9c0.4,0,0.6,0.3,0.6,0.7v5.9
					C13.8,31.5,13.5,31.8,13.1,31.8z M7.8,30.5h4.6v-4.6H7.8V30.5z"/>
			</g>
			<g>
				<path class="st0" d="M22.8,31.8h-5.9c-0.4,0-0.6-0.3-0.6-0.7v-5.9c0-0.4,0.3-0.7,0.6-0.7h5.9c0.4,0,0.6,0.3,0.6,0.7v5.9
					C23.5,31.5,23.2,31.8,22.8,31.8z M17.5,30.5h4.6v-4.6h-4.6V30.5z"/>
			</g>
			<g>
				<path class="st0" d="M32.5,31.8h-5.9c-0.4,0-0.6-0.3-0.6-0.7v-5.9c0-0.4,0.3-0.7,0.6-0.7h5.9c0.4,0,0.7,0.3,0.7,0.7v5.9
					C33.2,31.5,32.9,31.8,32.5,31.8z M27.2,30.5h4.6v-4.6h-4.6V30.5z"/>
			</g>
			<g>
				<path class="st0" d="M42.3,31.8h-5.9c-0.4,0-0.7-0.3-0.7-0.7v-5.9c0-0.4,0.3-0.7,0.7-0.7h5.9c0.4,0,0.7,0.3,0.7,0.7v5.9
					C42.9,31.5,42.6,31.8,42.3,31.8z M37,30.5h4.6v-4.6H37V30.5z"/>
			</g>
			<g>
				<path class="st0" d="M13.1,41.8H7.2c-0.4,0-0.6-0.3-0.6-0.7v-5.9c0-0.4,0.3-0.7,0.6-0.7h5.9c0.4,0,0.6,0.3,0.6,0.7v5.9
					C13.8,41.5,13.5,41.8,13.1,41.8z M7.8,40.5h4.6v-4.6H7.8V40.5z"/>
			</g>
			<g>
				<path class="st0" d="M22.8,41.8h-5.9c-0.4,0-0.6-0.3-0.6-0.7v-5.9c0-0.4,0.3-0.7,0.6-0.7h5.9c0.4,0,0.6,0.3,0.6,0.7v5.9
					C23.5,41.5,23.2,41.8,22.8,41.8z M17.5,40.5h4.6v-4.6h-4.6V40.5z"/>
			</g>
			<g>
				<path class="st0" d="M32.5,41.8h-5.9c-0.4,0-0.6-0.3-0.6-0.7v-5.9c0-0.4,0.3-0.7,0.6-0.7h5.9c0.4,0,0.7,0.3,0.7,0.7v5.9
					C33.2,41.5,32.9,41.8,32.5,41.8z M27.2,40.5h4.6v-4.6h-4.6V40.5z"/>
			</g>
			<g>
				<path class="st0" d="M42.3,41.8h-5.9c-0.4,0-0.7-0.3-0.7-0.7v-5.9c0-0.4,0.3-0.7,0.7-0.7h5.9c0.4,0,0.7,0.3,0.7,0.7v5.9
					C42.9,41.5,42.6,41.8,42.3,41.8z M37,40.5h4.6v-4.6H37V40.5z"/>
			</g>
			<g>
				<path class="st0" d="M13.1,51.8H7.2c-0.4,0-0.6-0.3-0.6-0.7v-5.9c0-0.4,0.3-0.7,0.6-0.7h5.9c0.4,0,0.6,0.3,0.6,0.7v5.9
					C13.8,51.6,13.5,51.8,13.1,51.8z M7.8,50.5h4.6v-4.6H7.8V50.5z"/>
			</g>
			<g>
				<path class="st0" d="M22.8,51.8h-5.9c-0.4,0-0.6-0.3-0.6-0.7v-5.9c0-0.4,0.3-0.7,0.6-0.7h5.9c0.4,0,0.6,0.3,0.6,0.7v5.9
					C23.5,51.6,23.2,51.8,22.8,51.8z M17.5,50.5h4.6v-4.6h-4.6V50.5z"/>
			</g>
			<g>
				<path class="st0" d="M32.5,51.8h-5.9c-0.4,0-0.6-0.3-0.6-0.7v-5.9c0-0.4,0.3-0.7,0.6-0.7h5.9c0.4,0,0.7,0.3,0.7,0.7v5.9
					C33.2,51.6,32.9,51.8,32.5,51.8z M27.2,50.5h4.6v-4.6h-4.6V50.5z"/>
			</g>
			<g>
				<path class="st0" d="M42.3,51.8h-5.9c-0.4,0-0.7-0.3-0.7-0.7v-5.9c0-0.4,0.3-0.7,0.7-0.7h5.9c0.4,0,0.7,0.3,0.7,0.7v5.9
					C42.9,51.6,42.6,51.8,42.3,51.8z M37,50.5h4.6v-4.6H37V50.5z"/>
			</g>
			<g>
				<path class="st0" d="M13.1,61.9H7.2c-0.4,0-0.6-0.3-0.6-0.7v-5.9c0-0.4,0.3-0.7,0.6-0.7h5.9c0.4,0,0.6,0.3,0.6,0.7v5.9
					C13.8,61.6,13.5,61.9,13.1,61.9z M7.8,60.6h4.6V56H7.8V60.6z"/>
			</g>
			<g>
				<path class="st0" d="M22.8,61.9h-5.9c-0.4,0-0.6-0.3-0.6-0.7v-5.9c0-0.4,0.3-0.7,0.6-0.7h5.9c0.4,0,0.6,0.3,0.6,0.7v5.9
					C23.5,61.6,23.2,61.9,22.8,61.9z M17.5,60.6h4.6V56h-4.6V60.6z"/>
			</g>
			<g>
				<path class="st0" d="M32.5,61.9h-5.9c-0.4,0-0.6-0.3-0.6-0.7v-5.9c0-0.4,0.3-0.7,0.6-0.7h5.9c0.4,0,0.7,0.3,0.7,0.7v5.9
					C33.2,61.6,32.9,61.9,32.5,61.9z M27.2,60.6h4.6V56h-4.6V60.6z"/>
			</g>
			<g>
				<path class="st0" d="M42.3,61.9h-5.9c-0.4,0-0.7-0.3-0.7-0.7v-5.9c0-0.4,0.3-0.7,0.7-0.7h5.9c0.4,0,0.7,0.3,0.7,0.7v5.9
					C42.9,61.6,42.6,61.9,42.3,61.9z M37,60.6h4.6V56H37V60.6z"/>
			</g>
		</g>
	</g>
</g>
<g id="Layer_1">
</g>
</svg>
