<?xml version="1.0" encoding="UTF-8"?>
<svg id="Layer_2" data-name="Layer 2" xmlns="http://www.w3.org/2000/svg" viewBox="0 0 408.91 400.8">
  <defs>
    <style>
      .cls-1 {
        fill: #fff;
        stroke-width: 0px;
      }
    </style>
  </defs>
  <g id="OBJECTS">
    <path class="cls-1" d="M408.91,218.77c-1.57,10.23-2.66,20.57-4.8,30.68-7.57,35.67-23.86,66.95-48.31,93.99-23.12,25.58-50.96,44.12-83.43,55.69-1.87.67-3.81,1.29-5.77,1.5-5.79.63-10.57-2.62-11.02-8.41-.62-7.93-.32-15.93-.41-23.89-.16-14.49.15-29.01-.62-43.47-.53-9.97-4.1-19.22-11.07-26.8-.42-.45-.68-1.05-1.39-2.18,4.86-.76,9.27-1.41,13.66-2.15,14.97-2.52,29.23-7.03,42.07-15.35,13.13-8.51,22.74-20.13,28.35-34.66,8.72-22.59,11.12-45.93,5.97-69.73-2.55-11.77-8.15-22.19-15.98-31.34-1.76-2.06-2.19-3.83-1.37-6.46,5.11-16.28,3.38-32.29-2.21-48.12-.86-2.45-2.57-2.72-4.66-2.75-10.86-.18-20.64,3.66-30.06,8.42-6.52,3.29-12.62,7.4-19.09,10.79-1.91,1-4.62,1.55-6.65,1.05-19.01-4.68-38.3-6.92-57.77-5.46-12.28.92-24.45,3.4-36.62,5.49-3.1.53-5.55.37-8.23-1.38-11.5-7.53-23.44-14.28-36.95-17.53-3.96-.95-8.15-1.22-12.24-1.21-1.33,0-3.39,1.59-3.87,2.91-5.77,15.91-7.23,32.06-2.15,48.51.42,1.37.17,3.61-.71,4.64-18.33,21.38-21.54,46.41-18.08,73.17,1.77,13.72,5.24,26.86,12.24,38.92,9.13,15.73,22.64,26.2,39.29,32.96,11.43,4.64,23.4,7.04,35.55,8.71.92.13,1.84.25,2.74.47.35.08.64.43.96.66-2.34,3.57-5.08,6.89-6.83,10.67-1.94,4.18-2.81,8.84-4.46,13.17-.64,1.66-1.86,3.75-3.34,4.35-20.93,8.46-42.13,5.7-55.75-16-5.94-9.47-13.09-17.62-24.08-21.07-4.06-1.27-8.62-1.62-12.9-1.39-4.63.25-5.58,3.34-2.48,6.75,1.33,1.46,2.88,2.81,4.55,3.86,11.16,7.05,18.41,17.28,23,29.33,9.76,25.63,33.72,33.13,54.92,31.2,4.61-.42,9.2-1.11,14.89-1.8,0,4.37-.03,8.42,0,12.47.07,7.05.46,14.11.2,21.15-.35,9.41-6.79,13.95-15.48,10.58-10.27-3.99-20.59-8.11-30.3-13.26-31.94-16.94-57.53-40.98-76.75-71.57-16.45-26.17-26.43-54.69-29.99-85.49-4.82-41.79,1.91-81.61,21.71-118.64C55.46,50.4,105.63,13.47,173.23,2.76c62.41-9.89,118.29,6.87,165.97,48.47,39.2,34.2,61.64,77.73,68.29,129.36.47,3.68.95,7.36,1.42,11.03v27.15Z"/>
  </g>
</svg>