<?xml version="1.0" encoding="utf-8"?>
<!-- Generator: Adobe Illustrator 28.1.0, SVG Export Plug-In . SVG Version: 6.00 Build 0)  -->
<svg version="1.1" id="Layer_1" xmlns="http://www.w3.org/2000/svg" xmlns:xlink="http://www.w3.org/1999/xlink" x="0px" y="0px"
	 viewBox="0 0 89.3 89.3" style="enable-background:new 0 0 89.3 89.3;" xml:space="preserve">
<style type="text/css">
	.st0{fill:#FFFFFF;}
</style>
<g>
	<g>
		<path class="st0" d="M44.7,0C20,0,0,20,0,44.7s20,44.7,44.7,44.7s44.7-20,44.7-44.7S69.3,0,44.7,0z M44.4,16.8
			c3.1,0,5.6,1.9,5.6,4.7c0,0.2-2.8,35.4-2.8,35.4s-0.3,1.5-2.8,1.4c-2.5,0-2.8-1.4-2.8-1.4s-2.8-35.1-2.8-35.4
			C38.8,18.7,41.3,16.8,44.4,16.8z M10.4,40.4c-1.3-1.7-1.4-3.4,0.3-4.7c7.7-5.9,16.8-9.5,26.5-10.4c0.1,2,0.4,4.7,0.6,7.7
			c-8.2,0.8-15.9,3.9-22.4,8.9C13.8,43.1,11.7,42,10.4,40.4z M28.1,54.6c-1.7,1.2-3.4,0.4-4.6-1.4c-1.2-1.7-1.5-3.7,0.2-5
			c4.4-3.1,9.5-5,14.8-5.6c0.2,2.8,0.4,5.5,0.6,7.7C35.1,50.9,31.4,52.4,28.1,54.6z M44.4,72.5c-2.7,0-4.9-2.2-4.9-4.9
			s2.2-4.9,4.9-4.9c2.7,0,4.9,2.2,4.9,4.9S47.1,72.5,44.4,72.5z M66.1,53.6c-1.3,1.7-3.1,2.6-4.9,1.4c-3.4-2.5-7.4-4.1-11.6-4.6
			c0.2-2.3,0.4-4.9,0.6-7.7c5.6,0.7,10.9,2.7,15.5,6.1C67.5,50,67.4,51.9,66.1,53.6z M74,42.2c-6.6-5.2-14.5-8.4-22.9-9.3
			c0.2-3,0.4-5.7,0.6-7.7c9.9,1.1,19.2,4.8,27,10.9c1.7,1.3,1.3,2.9,0,4.6C77.4,42.4,75.7,43.5,74,42.2z"/>
	</g>
</g>
</svg>
