<?xml version="1.0" encoding="UTF-8"?>
<svg id="Layer_2" data-name="Layer 2" xmlns="http://www.w3.org/2000/svg" viewBox="0 0 120.8 73.83">
  <defs>
    <style>
      .cls-1, .cls-2, .cls-3, .cls-4 {
        fill: #fff;
        stroke-width: 0px;
      }

      .cls-1, .cls-3 {
        opacity: .5;
      }

      .cls-2, .cls-3 {
        fill-rule: evenodd;
      }
    </style>
  </defs>
  <g id="OBJECTS">
    <g>
      <g>
        <path class="cls-2" d="M0,28.66v-1.95c9.47-5.95,19.43-11.84,28.7-18.02l10.92-6.71c1.13-.69,2.26-1.19,3.39-1.51,2.71-.78,5.36-.56,7.62.32,2.31.89,4.22,2.49,5.42,4.45.46.75.82,1.55,1.05,2.37.82,2.86.55,5.72-1.21,8.65-1.5,2.49-4.11,4.96-8.13,7.43l-28.45,17.47-1.79-1.01c-2.38-1.34-4.86-2.72-7.53-4.15-2.46-1.33-5.14-2.73-8.09-4.23l-1.91-.97v-2.13h0ZM32.32,14.63l-21.86,13.72c.94.5,1.89,1,2.83,1.51,1.96,1.05,3.91,2.12,5.87,3.22l24.98-15.34c3.02-1.85,4.87-3.52,5.79-5.06.66-1.1.77-2.15.48-3.17-.07-.23-.16-.45-.29-.66-.42-.68-1.12-1.25-1.99-1.59-.92-.36-2.03-.44-3.21-.1-.55.16-1.11.4-1.67.75l-10.92,6.71Z"/>
        <path class="cls-2" d="M0,39.18l32.32,20.02,10.93,6.71c.56.34,1.12.59,1.67.74,1.18.34,2.28.26,3.21-.1.87-.34,1.58-.91,1.99-1.58.13-.21.23-.43.29-.66.29-1.03.19-2.08-.48-3.17-.92-1.54-2.77-3.21-5.79-5.06l-.65-.4C28.54,46.5,17.37,39.64,1.91,31.76l3.16-6.21c15.58,7.94,26.9,14.89,42.05,24.19l.65.4c4.03,2.47,6.64,4.94,8.13,7.43,1.76,2.93,2.03,5.79,1.21,8.65-.24.83-.59,1.62-1.05,2.37-1.2,1.95-3.11,3.55-5.42,4.45-2.26.88-4.91,1.09-7.62.32-1.12-.32-2.26-.81-3.39-1.51l-10.92-6.71L0,47.36v-8.18Z"/>
      </g>
      <g>
        <g>
          <g>
            <path class="cls-4" d="M70.72,61.14c-.66,1.1-.77,2.15-.48,3.17.07.23.16.45.29.66.42.68,1.12,1.25,1.99,1.59.92.36,2.03.44,3.21.1.55-.16,1.11-.4,1.67-.74l10.92-6.71,21.86-13.72c-3.02-1.59-5.89-3.16-8.7-4.73l-24.97,15.33c-3.02,1.85-4.87,3.52-5.79,5.06Z"/>
            <path class="cls-1" d="M91.95,8.69l-10.92-6.71c-1.13-.69-2.26-1.19-3.38-1.51-2.71-.78-5.36-.56-7.62.32-2.31.89-4.22,2.49-5.42,4.45-.46.75-.82,1.55-1.05,2.37-.82,2.86-.55,5.72,1.21,8.65,1.49,2.49,4.1,4.96,8.13,7.43l.65.4c7.65,4.7,14.32,8.8,21.06,12.72l-21.71,13.33c-4.03,2.47-6.64,4.94-8.13,7.43-1.76,2.93-2.03,5.79-1.21,8.65.24.83.59,1.62,1.05,2.37,1.2,1.95,3.11,3.55,5.42,4.45,2.26.88,4.91,1.09,7.62.32,1.12-.32,2.26-.81,3.38-1.51l10.92-6.71c9.26-6.17,19.22-12.07,28.7-18.02v-4.08l-1.91-.97c-.93-.47-1.84-.94-2.74-1.41-.08-.04-.16-.08-.24-.12-13.96-7.25-24.63-13.81-38.6-22.38l-.65-.4c-3.02-1.85-4.87-3.52-5.79-5.06-.66-1.1-.77-2.15-.48-3.17.07-.23.16-.45.29-.66.42-.68,1.12-1.25,1.99-1.59.92-.36,2.03-.44,3.21-.1.55.16,1.11.4,1.67.75l10.92,6.71,32.27,19.99.05-.08v-7.97h.16l-28.86-17.88ZM110.18,45.48l-21.86,13.72-10.92,6.71c-.56.34-1.12.59-1.67.74-1.18.34-2.29.26-3.21-.1-.87-.34-1.58-.91-1.99-1.59-.13-.21-.23-.43-.29-.66-.29-1.03-.18-2.08.48-3.17.92-1.54,2.77-3.21,5.79-5.06l24.97-15.33c2.81,1.57,5.69,3.14,8.7,4.73Z"/>
          </g>
          <path class="cls-3" d="M53.75,8.57c-1.16-4.05-6.84-6.98-12.32-3.61l-10.92,6.71L3.49,28.62v.03c5.69,2.9,10.81,5.67,15.75,8.46l26.71-16.4c7.05-4.33,8.92-8.27,7.8-12.16Z"/>
          <circle class="cls-1" cx="49.57" cy="36.91" r="5.63" transform="translate(-5.27 8.42) rotate(-9.22)"/>
        </g>
        <path class="cls-2" d="M70.23,42.54c3.1,0,5.63-2.53,5.63-5.63s-2.53-5.63-5.63-5.63-5.63,2.53-5.63,5.63,2.53,5.63,5.63,5.63Z"/>
      </g>
    </g>
  </g>
</svg>