<?xml version="1.0" encoding="UTF-8"?>
<svg id="Layer_2" data-name="Layer 2" xmlns="http://www.w3.org/2000/svg" viewBox="0 0 400.8 400.8">
  <defs>
    <style>
      .cls-1, .cls-2, .cls-3, .cls-4, .cls-5, .cls-6 {
        stroke-width: 0px;
      }

      .cls-1, .cls-2, .cls-3, .cls-6 {
        fill-rule: evenodd;
      }

      .cls-1, .cls-3 {
        fill: #2e35f1;
      }

      .cls-2, .cls-5 {
        fill: #fff;
      }

      .cls-3 {
        opacity: .5;
      }
    </style>
  </defs>
  <g id="OBJECTS">
    <g>
      <circle class="cls-5" cx="200.4" cy="200.4" r="200.4"/>
      <g>
        <path class="cls-2" d="M133.87,228.01l22.41-77.62h89.65l22.41,77.62h-134.47Z"/>
        <ellipse class="cls-4" cx="229.85" cy="189.75" rx="6.33" ry="6.25"/>
        <path class="cls-1" d="M187.94,182.65c0-2.18-1.79-3.95-4-3.95h-18.88c-2.21,0-4,1.77-4,3.95v12.23c0,3.27,2.69,5.92,6.01,5.92h6.87c3.72,0,7.28-1.46,9.91-4.05,2.63-2.59,4.1-6.11,4.1-9.77v-4.33Z"/>
        <path class="cls-1" d="M266.12,76.2l44.49-22.77-24.38,90.47-20.11,20.11v-87.81Z"/>
        <path class="cls-1" d="M134.69,76.2l-44.49-22.77,24.38,90.47,20.11,20.11v-87.81Z"/>
        <path class="cls-1" d="M268.34,117.48s-33.62-22.1-67.23-22.1-67.23,22.1-67.23,22.1v66.32l8.96,17.68c6.43-24.44,35.54-34.62,55.81-19.52l2.46,1.83,2.46-1.83c20.26-15.1,49.38-4.92,55.81,19.52l8.97-17.68v-66.32Z"/>
        <path class="cls-1" d="M178.69,216.96l-17.93,103.89-24.72-17.68,20.24-75.16,22.41-11.05Z"/>
        <path class="cls-1" d="M223.52,216.96l17.93,103.89,24.72-17.68-20.24-75.16-22.41-11.05Z"/>
        <path class="cls-3" d="M133.87,183.8l-17.93,66.32,22.41,44.21,17.93-66.32-22.41-44.21Z"/>
        <path class="cls-3" d="M268.34,183.8l17.93,66.32-22.41,44.21-17.93-66.32,22.41-44.21Z"/>
        <path class="cls-3" d="M178.69,216.96l-20.17,108.32,42.58,22.11,42.58-22.11-20.17-108.32-20.74-10.23-1.67-.82-22.41,11.05Z"/>
        <path class="cls-6" d="M209.14,221.38h-15.69v5.53c0,2.05.83,4.02,2.3,5.47,1.47,1.45,3.46,2.27,5.54,2.27h0c2.08,0,4.07-.82,5.54-2.27,1.47-1.45,2.3-3.42,2.3-5.47v-5.53Z"/>
      </g>
    </g>
  </g>
</svg>